#!OML:ASF F:\VICON\USERDATA\INSTALL\Justin_Nancy\Justin_Nancy.ASF
:FULLY-SPECIFIED
:DEGREES
421
root 3.84041 17.4177 9.99328 46.5035 87.6824 44.464
lowerback 6.51889 -0.419172 -3.4393
upperback -0.255221 -0.737008 1.97262
thorax -3.85486 -0.27409 4.05582
lowerneck -17.7568 -3.43281 -8.5214
upperneck 24.2735 -2.81479 2.89036
head 10.9686 -1.61861 2.08373
rclavicle -2.38542e-015 3.97569e-015
rhumerus -34.8177 -16.5637 -77.67
rradius 26.3919
rwrist 11.739
rhand -13.4983 10.6887
rfingers 7.12502
rthumb 12.6128 -18.9105
lclavicle -2.38542e-015 3.97569e-015
lhumerus -29.3569 10.0955 83.6857
lradius 35.6045
lwrist -3.22429
lhand -20.2231 24.158
lfingers 7.12502
lthumb 6.12443 54.0495
rfemur -25.2789 3.03376 18.3146
rtibia 22.2494
rfoot -1.0754 -1.03254
rtoes 13.3416
lfemur 8.77514 -6.77991 -28.1426
ltibia 26.5032
lfoot -7.12031 -3.46937
ltoes -15.472
422
root 4.01106 17.4525 9.9928 50.9749 87.4128 49.1351
lowerback 6.43541 -0.381312 -3.41706
upperback -0.19642 -0.689344 1.81022
thorax -3.75329 -0.256121 3.86678
lowerneck -17.7278 -3.5103 -8.67197
upperneck 24.2512 -2.9324 3.07134
head 10.9679 -1.66384 2.15734
rclavicle -4.07509e-015 1.66979e-014
rhumerus -35.0071 -17.5844 -77.1914
rradius 26.2637
rwrist 12.5965
rhand -13.2581 10.7836
rfingers 7.12502
rthumb 12.8444 -18.8012
lclavicle -4.07509e-015 1.66979e-014
lhumerus -29.5827 9.56843 83.7426
lradius 35.2045
lwrist -2.77852
lhand -20.0841 24.2488
lfingers 7.12502
lthumb 6.25861 54.1363
rfemur -24.6262 3.32861 17.7413
rtibia 22.5966
rfoot -1.31985 -0.740316
rtoes 18.6282
lfemur 8.35972 -6.71791 -28.6064
ltibia 28.0716
lfoot -5.54238 -3.81306
ltoes -15.8317
423
root 4.14681 17.4693 10.0298 65.3225 87.2762 63.3237
lowerback 6.43953 -0.468182 -4.10456
upperback -0.336744 -0.861343 1.80382
thorax -3.87706 -0.323403 4.26804
lowerneck -17.7964 -3.64386 -8.84602
upperneck 24.2287 -3.07041 3.09465
head 10.9871 -1.73998 2.17301
rclavicle -4.22417e-015 -1.03368e-014
rhumerus -35.0974 -18.2656 -76.7468
rradius 26.1088
rwrist 13.0734
rhand -12.9334 10.8925
rfingers 7.12502
rthumb 13.1574 -18.6724
lclavicle -4.22417e-015 -1.03368e-014
lhumerus -29.7404 9.62795 83.7662
lradius 34.6602
lwrist -2.35785
lhand -19.1994 23.2953
lfingers 7.12502
lthumb 7.11266 53.1558
rfemur -24.4659 2.68959 17.5509
rtibia 22.947
rfoot -1.24904 -0.78062
rtoes 18.6477
lfemur 7.38496 -6.33997 -28.5507
ltibia 29.6028
lfoot -3.63919 -5.18528
ltoes -16.5103
424
root 4.29137 17.4947 10.0926 72.103 87.3466 70.1096
lowerback 6.53077 -0.534687 -4.70099
upperback -0.417524 -0.994888 1.96304
thorax -3.9875 -0.371038 4.78968
lowerneck -17.7396 -3.69081 -8.9255
upperneck 24.0938 -3.09451 2.99916
head 10.9286 -1.76953 2.14644
rclavicle -1.19271e-015 4.77083e-015
rhumerus -35.2279 -18.1055 -76.607
rradius 26.0685
rwrist 13.0613
rhand -13.0818 10.7509
rfingers 7.12502
rthumb 13.0143 -18.8231
lclavicle -1.19271e-015 4.77083e-015
lhumerus -29.8833 10.1151 83.6575
lradius 33.9529
lwrist -2.25527
lhand -18.2985 22.5034
lfingers 7.12502
lthumb 7.9822 52.3327
rfemur -23.9343 2.99675 17.6812
rtibia 23.1272
rfoot -1.40417 -1.56292
rtoes 20.2155
lfemur 6.58635 -6.3633 -28.1937
ltibia 31.3233
lfoot -1.44763 -5.85965
ltoes -16.371
425
root 4.48073 17.5197 10.1141 58.7151 87.6882 57.0694
lowerback 6.29755 -0.406863 -4.08717
upperback -0.228296 -0.759868 2.06061
thorax -3.69173 -0.276811 4.51364
lowerneck -17.6653 -3.67472 -8.7439
upperneck 23.9713 -3.08713 2.82261
head 10.8616 -1.77044 2.05236
rclavicle -1.32689e-014 5.56597e-015
rhumerus -34.8578 -13.823 -77.2668
rradius 26.3061
rwrist 8.64736
rhand -12.7488 10.1288
rfingers 7.12502
rthumb 13.3353 -19.4245
lclavicle -1.32689e-014 5.56597e-015
lhumerus -30.0201 9.56199 83.8187
lradius 33.4644
lwrist -2.21561
lhand -18.9553 23.8132
lfingers 7.12502
lthumb 7.3483 53.6656
rfemur -22.8233 3.87616 18.245
rtibia 23.1046
rfoot -1.71982 -1.66347
rtoes 21.9234
lfemur 6.30509 -6.54189 -27.8821
ltibia 33.103
lfoot 0.77607 -5.43673
ltoes -16.2154
426
root 4.61129 17.529 10.1402 43.5959 88.3152 41.605
lowerback 6.11333 -0.463547 -3.2592
upperback -0.369812 -0.7584 2.27763
thorax -3.74192 -0.285229 4.26886
lowerneck -17.6731 -3.56587 -8.65189
upperneck 23.8733 -2.96039 2.81122
head 10.8156 -1.70524 2.05073
rclavicle 2.48481e-015 2.06736e-014
rhumerus -35.0436 -17.307 -76.7547
rradius 25.8949
rwrist 12.2152
rhand -12.5242 10.5305
rfingers 7.12502
rthumb 13.5519 -19.0085
lclavicle 2.48481e-015 2.06736e-014
lhumerus -30.2152 8.92522 83.958
lradius 33.1207
lwrist -2.4823
lhand -20.5134 25.5274
lfingers 7.12502
lthumb 5.84418 55.4268
rfemur -22.6501 3.61379 19.5497
rtibia 23.0109
rfoot -1.60365 -1.07609
rtoes 18.4082
lfemur 4.83026 -5.9194 -26.5075
ltibia 34.996
lfoot 3.27482 -6.7432
ltoes -17.3518
427
root 4.7641 17.5719 10.1485 19.9595 88.5515 18.1929
lowerback 6.29123 -0.425585 -2.36896
upperback -0.326507 -0.635769 2.40546
thorax -3.81613 -0.237919 3.88848
lowerneck -17.5647 -3.50481 -8.53992
upperneck 23.7551 -2.92193 2.81935
head 10.7456 -1.67585 2.04064
rclavicle 6.16232e-015 -7.95139e-016
rhumerus -35.098 -18.3111 -76.5806
rradius 25.7648
rwrist 13.2561
rhand -11.8412 11.0152
rfingers 7.12502
rthumb 14.21 -18.4787
lclavicle 6.16232e-015 -7.95139e-016
lhumerus -30.3731 8.68907 83.9461
lradius 32.6
lwrist -3.41787
lhand -19.8702 25.5232
lfingers 7.12502
lthumb 6.46517 55.4045
rfemur -21.6373 4.98644 19.8235
rtibia 22.8697
rfoot -2.24243 -1.53316
rtoes 26.077
lfemur 4.00966 -5.60648 -25.6357
ltibia 36.9075
lfoot 5.78015 -7.67553
ltoes -17.0555
